<svg xmlns="http://www.w3.org/2000/svg" width="1400" height="700" viewBox="0 0 1400 700">
<defs>
<linearGradient id="bg" x2="0" y2="1"><stop stop-color="#25211b"/><stop offset="1" stop-color="#08090a"/></linearGradient>
<linearGradient id="gold"><stop stop-color="#8c6424"/><stop offset=".5" stop-color="#e4bf63"/><stop offset="1" stop-color="#6d4b1a"/></linearGradient>
<radialGradient id="spot"><stop stop-color="#f2cf7c" stop-opacity=".7"/><stop offset="1" stop-color="#000" stop-opacity="0"/></radialGradient>
<filter id="shadow"><feGaussianBlur stdDeviation="14"/></filter>
</defs>
<rect width="1400" height="700" fill="#08090a"/>
<!-- shirt -->
<g><rect width="350" height="700" fill="url(#bg)"/><circle cx="175" cy="110" r="190" fill="url(#spot)"/>
<rect x="72" y="85" width="206" height="500" rx="8" fill="#171717" stroke="#b78b3a" stroke-width="5"/>
<path d="M132 145l43-32 43 32 52 20-32 82v220H112V247l-32-82z" fill="#eee" stroke="#b78b3a" stroke-width="5"/>
<path d="M145 128q30 35 60 0" fill="none" stroke="#b78b3a" stroke-width="8"/>
<text x="175" y="290" text-anchor="middle" font-family="Arial" font-weight="700" font-size="62" fill="#111">10</text>
<path d="M130 360q45-35 90 0" fill="none" stroke="#111" stroke-width="7"/>
<path d="M115 535h120" stroke="#b78b3a" stroke-width="8"/></g>
<!-- boots -->
<g transform="translate(350)"><rect width="350" height="700" fill="url(#bg)"/><circle cx="175" cy="110" r="190" fill="url(#spot)"/>
<ellipse cx="180" cy="545" rx="145" ry="32" fill="#000" filter="url(#shadow)"/>
<path d="M75 470q20-55 92-88l80 48q42 26 55 75l-25 31H115q-54-22-40-66z" fill="url(#gold)" stroke="#e7c56e" stroke-width="4"/>
<path d="M170 392l70 40-32 88-85-30z" fill="#111"/>
<path d="M95 492l95 15m-72-36 100 22" stroke="#e9c56c" stroke-width="5"/>
<path d="M105 536h190" stroke="#d9b65b" stroke-width="7"/></g>
<!-- tennis -->
<g transform="translate(700)"><rect width="350" height="700" fill="url(#bg)"/><circle cx="175" cy="110" r="190" fill="url(#spot)"/>
<path d="M82 160q100 160 230 390" fill="none" stroke="#c89b46" stroke-width="18"/>
<ellipse cx="132" cy="250" rx="105" ry="145" transform="rotate(-30 132 250)" fill="none" stroke="#e2c16d" stroke-width="14"/>
<path d="M70 175l125 150m-150-92 155 80m-165-5 130 130m-90-175 100 40" stroke="#ddd" stroke-width="3" opacity=".8"/>
<circle cx="220" cy="510" r="48" fill="#b7c75b"/><path d="M190 485q35 10 55 48" fill="none" stroke="#f1f0b5" stroke-width="5"/></g>
<!-- UFC -->
<g transform="translate(1050)"><rect width="350" height="700" fill="url(#bg)"/><circle cx="175" cy="110" r="190" fill="url(#spot)"/>
<path d="M45 170h260v360H45z" fill="none" stroke="#555" stroke-width="8"/>
<path d="M45 170l260 360M305 170L45 530" stroke="#343434" stroke-width="3"/>
<path d="M115 300q20-60 70-45l42 35-12 105-35 48-58-28z" fill="#111" stroke="#c89c4b" stroke-width="7"/>
<path d="M205 315q25-45 60-10l-8 112-42 42-48-25 18-55z" fill="#151515" stroke="#c89c4b" stroke-width="7"/>
<path d="M130 330l70 45m-70-15 55 35" stroke="#e0bd68" stroke-width="5"/></g>
</svg>